<?xml version="1.0" encoding="utf-8"?>
<!-- Generator: Adobe Illustrator 18.0.0, SVG Export Plug-In . SVG Version: 6.00 Build 0)  -->
<!DOCTYPE svg PUBLIC "-//W3C//DTD SVG 1.1//EN" "http://www.w3.org/Graphics/SVG/1.1/DTD/svg11.dtd">
<svg version="1.1" id="Layer_1" xmlns="http://www.w3.org/2000/svg" xmlns:xlink="http://www.w3.org/1999/xlink" x="0px" y="0px"
	 viewBox="0 0 72.6 32.1" style="enable-background:new 0 0 72.6 32.1;" xml:space="preserve">
<style type="text/css">
	.st0{fill:#FFFFFF;}
	.st1{fill:#BF2227;}
</style>
<g>
	<polygon class="st0" points="0.3,32.1 0.7,16.4 0,0.5 22.8,0.5 44.1,0.4 63.2,0.2 72.2,0 72.1,18.3 72.6,31.8 37.2,31.8 	"/>
	<path class="st1" d="M13.7,11.9c0,0,2.7-0.4,2.7-0.2c0.3,0.6,0.7,8.8,0.7,8.8s0.6,3.3-0.7,4.3c-1.3,1.1-3,1.3-4,1.3
		c-1,0-1.7-0.1-2-0.2c-0.4-0.2-0.7-1.9-0.2-2.3c0.6-0.4,2.4,0.5,3.1,0.1c0.6-0.3,1.2-0.9,1.1-1.8c-0.1-0.9-0.1-1.1-0.1-1.1
		s-0.5,1.5-1.7,1.7c-1.2,0.2-2.8-0.7-3.3-3c-0.4-2.4-0.3-4.5-0.1-5.4c0.2-0.8,0.8-2.4,2.2-2.3c1.4,0,2.1,1.2,2.1,1.2L13.7,11.9z
		 M11.8,14.9c-0.3,0.5-0.4,1.7-0.1,3.3c0.2,1.6,1.3,1.9,1.6,1.9c0.3,0,1.6-0.3,1.2-3.3c-0.4-3-1.8-2.7-1.8-2.7
		C12.2,14.2,12.1,14.4,11.8,14.9z"/>
	<path class="st1" d="M18.2,11.3c0,0.3,0.4,10.1,0.5,10.2c0,0.1,2.2-0.1,2.2-0.1l-0.3-5.7c0,0,0-1,0.3-1.4c0.3-0.4,0.5-0.6,1.2-0.7
		c0.1,0,0-2.4-0.1-2.7c0,0-0.8,0-1,0.4c-0.3,0.4-0.4,0.6-0.4,0.7c-0.1,0.2-0.1,0.3-0.1,0.3l-0.1-1.3L18.2,11.3z"/>
	<path class="st1" d="M23.3,10.8c0-0.1,2.2-0.2,2.2-0.1c0.1,0.9,0.4,7.1,0.4,7.1s0.4,1.4,0.8,1.2c0.8-0.3,0.7-1.3,0.7-1.3
		s-0.6-6.5-0.4-7.1l2.2-0.1c0.2,2.2,0.6,7.7,0.6,10.2c0,0-2.1,0.5-2.2,0.1c-0.1-0.4-0.1-1.2-0.1-1.2s-0.5,1.5-1.8,1.5
		c-1.3,0-1.9-1.4-2-2C23.8,18.5,23.4,11.6,23.3,10.8z"/>
	<path class="st1" d="M33.4,7.7c0,0.7,0.1,4.3,0.1,4.3l0.2-0.4c0,0,0.7-1.1,1.6-1.1c0.9,0.1,2,0.6,2.3,3.4c0.3,2.8-0.1,4.4-0.3,5.2
		c-0.2,0.8-0.8,1.5-1.9,1.5c-1.2,0-1.7-1.3-1.7-1.3s0.2,1,0,1.2c-0.6,0.6-2.3,0.2-2.3,0.1c0-0.2-0.1-3.8-0.1-3.8s-0.2-7.6-0.2-8.9
		C31.1,7.7,33.4,7.5,33.4,7.7z M33.5,13.8c-0.2,0.6-0.2,1.8-0.1,3.4c0.1,1.7,1.7,1.2,1.7,1.2s0.7-0.4,0.8-2.9
		c0.1-2.6-1.3-2.9-1.3-2.9C33.9,12.7,33.8,13.2,33.5,13.8z"/>
	<path class="st1" d="M39.9,6.7l2.4,0.1c0,0-0.5,5.3-0.3,5.7c0,0.1,2.1,0.2,2.1,0.1C44.1,12,44.3,7,44.3,7l2.4,0.1
		c0,0-0.3,7.5-0.3,7.9c0,0.7-0.4,5.8-0.4,5.8c-0.5,0.4-2.4-0.1-2.4-0.1s0.3-4.9,0.3-5.8c0-0.1-2.1-0.1-2.1-0.1
		c-0.1,1.1-0.1,5.4-0.3,5.8c-0.4,0.5-2.4-0.1-2.4-0.1C39.2,18.3,39.9,6.7,39.9,6.7z"/>
	<path class="st1" d="M48.4,10.3c0-0.2,2.3,0.1,2.2,0.3c-0.1,1.2-0.8,7.2-0.8,7.2s-0.1,1.3,0.6,1.2c0.7-0.1,0.9-0.6,1-1.6
		c0.1-1,0.7-5.8,0.8-6.6l2.2,0.3c-0.6,3.1-1.2,10.2-1.2,10.2L51,20.9l0.1-1.1c0,0-0.8,1.2-1.9,1.1c-1.1-0.1-1.8-1.2-1.6-2.9
		C47.7,16.2,48.3,11,48.4,10.3z"/>
	<path class="st1" d="M55.3,13.8c0-0.2,0.7-4.8,0.8-5.6c0,0,2.5,0.1,2.5,0.3c-0.1,1.1-0.5,4.5-0.5,4.5s1.1-1.4,1.9-1.3
		c0.8,0.2,1.7,0.2,2.1,2.4c0.4,2.2-0.5,5.8-0.7,6.3c-0.2,0.4-0.9,2.1-2.4,2c-1.5-0.1-1.5-1.1-1.5-1.1l-0.3-0.6c0,0,0.1,1-0.1,1.2
		c-0.5,0.4-2.3,0.3-2.5-0.3C54.2,20.7,55.3,14.1,55.3,13.8z M57.4,17c0,2.9,1.1,3.2,1.1,3.2s1.4-0.1,1.7-2.9c0.3-2.9-1-3.1-1-3.1
		S57.4,14,57.4,17z"/>
	<g>
		<path class="st1" d="M63.1,11.1v0.1h-0.2v0.7h-0.2v-0.7h-0.2v-0.1H63.1z"/>
		<path class="st1" d="M63.8,11.1H64v0.8h-0.2v-0.6c0,0,0,0,0-0.1c0,0,0-0.1,0-0.1l-0.2,0.7h-0.2l-0.2-0.7c0,0,0,0,0,0.1
			c0,0,0,0.1,0,0.1v0.6h-0.2v-0.8h0.3l0.1,0.6L63.8,11.1z"/>
	</g>
</g>
</svg>
